<?xml version="1.0" standalone="no"?>
<!DOCTYPE svg PUBLIC "-//W3C//DTD SVG 20010904//EN"
 "http://www.w3.org/TR/2001/REC-SVG-20010904/DTD/svg10.dtd">
<svg version="1.0" xmlns="http://www.w3.org/2000/svg"
 width="800.000000pt" height="800.000000pt" viewBox="0 0 800.000000 800.000000"
 preserveAspectRatio="xMidYMid meet">
<metadata>
Created by potrace 1.11, written by Peter Selinger 2001-2013
</metadata>
<g transform="translate(0.000000,800.000000) scale(0.100000,-0.100000)"
fill="#000000" stroke="none">
<path d="M7070 7038 c-36 -15 -331 -305 -1551 -1524 l-1505 -1505 -462 461
c-366 365 -471 465 -508 480 -80 35 -189 25 -255 -21 -55 -38 -448 -442 -465
-477 -10 -20 -20 -65 -22 -100 -9 -125 -52 -75 791 -919 815 -816 795 -798
903 -806 27 -3 74 3 104 11 55 15 67 26 1858 1816 1384 1382 1809 1813 1829
1851 36 68 37 169 3 235 -15 29 -102 124 -244 265 -190 189 -228 222 -272 238
-63 22 -145 20 -204 -5z"/>
<path d="M3960 7000 c-1833 -4 -2354 -8 -2385 -18 -22 -7 -47 -14 -55 -16 -33
-8 -131 -56 -181 -88 -168 -108 -277 -267 -324 -468 -13 -57 -14 -354 -12
-2430 l2 -2365 21 -65 c76 -230 219 -394 421 -484 153 -67 -83 -61 2543 -61
1306 0 2389 3 2405 7 17 4 41 9 55 12 35 8 128 46 170 70 142 81 262 220 326
376 56 137 53 52 54 1934 0 1733 0 1739 -20 1715 -11 -13 -28 -33 -38 -44 -20
-20 -236 -263 -347 -389 l-60 -68 -5 -1457 c-5 -1366 -6 -1458 -23 -1488 -26
-48 -90 -108 -144 -135 l-48 -23 -2285 -3 c-2576 -3 -2353 -9 -2439 76 -89 88
-82 -150 -79 2437 l3 2290 22 45 c27 53 64 96 117 136 l39 29 2218 5 2218 5
112 105 c62 58 127 119 144 135 18 17 66 62 108 102 43 39 77 75 77 80 0 14
-85 33 -169 39 -42 3 -80 6 -86 7 -5 1 -1065 0 -2355 -3z"/>
</g>
</svg>
